<mxfile host="app.diagrams.net" agent="Mozilla/5.0 (Windows NT 10.0; Win64; x64) AppleWebKit/537.36 (KHTML, like Gecko) Chrome/140.0.0.0 Safari/537.36" version="28.2.3">
  <diagram name="PÃ¡gina-1" id="uRUPRFUxddCElPHsrauE">
    <mxGraphModel dx="1251" dy="691" grid="1" gridSize="10" guides="1" tooltips="1" connect="1" arrows="1" fold="1" page="1" pageScale="1" pageWidth="827" pageHeight="1169" math="0" shadow="0">
      <root>
        <mxCell id="0" />
        <mxCell id="1" parent="0" />
        <mxCell id="Tf7cWxxf-JpD68VfR2kZ-1" value="Kali Linux" style="rounded=0;whiteSpace=wrap;html=1;" parent="1" vertex="1">
          <mxGeometry x="40" y="150" width="110" height="60" as="geometry" />
        </mxCell>
        <mxCell id="3ZZmDOK_mV5vtJ6Xf8CN-4" value="" style="edgeStyle=orthogonalEdgeStyle;rounded=0;orthogonalLoop=1;jettySize=auto;html=1;" edge="1" parent="1" source="Tf7cWxxf-JpD68VfR2kZ-2" target="3ZZmDOK_mV5vtJ6Xf8CN-1">
          <mxGeometry relative="1" as="geometry" />
        </mxCell>
        <mxCell id="3ZZmDOK_mV5vtJ6Xf8CN-5" value="HTTP 9090" style="edgeLabel;html=1;align=center;verticalAlign=middle;resizable=0;points=[];" vertex="1" connectable="0" parent="3ZZmDOK_mV5vtJ6Xf8CN-4">
          <mxGeometry x="0.0255" y="2" relative="1" as="geometry">
            <mxPoint as="offset" />
          </mxGeometry>
        </mxCell>
        <mxCell id="Tf7cWxxf-JpD68VfR2kZ-2" value="MODSECURITY+WAF" style="rounded=0;whiteSpace=wrap;html=1;" parent="1" vertex="1">
          <mxGeometry x="280" y="150" width="190" height="60" as="geometry" />
        </mxCell>
        <mxCell id="Tf7cWxxf-JpD68VfR2kZ-3" value="DVWA" style="shape=cylinder3;whiteSpace=wrap;html=1;boundedLbl=1;backgroundOutline=1;size=15;" parent="1" vertex="1">
          <mxGeometry x="740" y="140" width="60" height="80" as="geometry" />
        </mxCell>
        <mxCell id="Tf7cWxxf-JpD68VfR2kZ-6" value="" style="endArrow=classic;html=1;rounded=0;exitX=1;exitY=0.5;exitDx=0;exitDy=0;entryX=0;entryY=0.5;entryDx=0;entryDy=0;" parent="1" source="Tf7cWxxf-JpD68VfR2kZ-1" target="Tf7cWxxf-JpD68VfR2kZ-2" edge="1">
          <mxGeometry width="50" height="50" relative="1" as="geometry">
            <mxPoint x="390" y="380" as="sourcePoint" />
            <mxPoint x="440" y="330" as="targetPoint" />
            <Array as="points">
              <mxPoint x="220" y="180" />
            </Array>
          </mxGeometry>
        </mxCell>
        <mxCell id="Tf7cWxxf-JpD68VfR2kZ-10" value="HTTP 8080" style="edgeLabel;html=1;align=center;verticalAlign=middle;resizable=0;points=[];" parent="Tf7cWxxf-JpD68VfR2kZ-6" vertex="1" connectable="0">
          <mxGeometry x="-0.0791" y="1" relative="1" as="geometry">
            <mxPoint as="offset" />
          </mxGeometry>
        </mxCell>
        <mxCell id="3ZZmDOK_mV5vtJ6Xf8CN-2" style="edgeStyle=orthogonalEdgeStyle;rounded=0;orthogonalLoop=1;jettySize=auto;html=1;entryX=0.5;entryY=1;entryDx=0;entryDy=0;" edge="1" parent="1" source="Tf7cWxxf-JpD68VfR2kZ-7" target="Tf7cWxxf-JpD68VfR2kZ-8">
          <mxGeometry relative="1" as="geometry" />
        </mxCell>
        <mxCell id="3ZZmDOK_mV5vtJ6Xf8CN-7" value="Iptables" style="edgeLabel;html=1;align=center;verticalAlign=middle;resizable=0;points=[];" vertex="1" connectable="0" parent="3ZZmDOK_mV5vtJ6Xf8CN-2">
          <mxGeometry x="-0.0307" relative="1" as="geometry">
            <mxPoint as="offset" />
          </mxGeometry>
        </mxCell>
        <mxCell id="Tf7cWxxf-JpD68VfR2kZ-7" value="Ubuntu WSL2" style="rounded=0;whiteSpace=wrap;html=1;" parent="1" vertex="1">
          <mxGeometry x="25" y="510" width="140" height="60" as="geometry" />
        </mxCell>
        <mxCell id="3ZZmDOK_mV5vtJ6Xf8CN-10" value="" style="edgeStyle=orthogonalEdgeStyle;rounded=0;orthogonalLoop=1;jettySize=auto;html=1;" edge="1" parent="1" source="Tf7cWxxf-JpD68VfR2kZ-8" target="3ZZmDOK_mV5vtJ6Xf8CN-9">
          <mxGeometry relative="1" as="geometry" />
        </mxCell>
        <mxCell id="Tf7cWxxf-JpD68VfR2kZ-8" value="Rede" style="rounded=0;whiteSpace=wrap;html=1;" parent="1" vertex="1">
          <mxGeometry x="35" y="360" width="120" height="60" as="geometry" />
        </mxCell>
        <mxCell id="3ZZmDOK_mV5vtJ6Xf8CN-8" value="" style="edgeStyle=orthogonalEdgeStyle;rounded=0;orthogonalLoop=1;jettySize=auto;html=1;" edge="1" parent="1" source="3ZZmDOK_mV5vtJ6Xf8CN-1" target="Tf7cWxxf-JpD68VfR2kZ-3">
          <mxGeometry relative="1" as="geometry" />
        </mxCell>
        <mxCell id="3ZZmDOK_mV5vtJ6Xf8CN-1" value="Dozzle" style="rounded=0;whiteSpace=wrap;html=1;" vertex="1" parent="1">
          <mxGeometry x="570" y="150" width="120" height="60" as="geometry" />
        </mxCell>
        <mxCell id="3ZZmDOK_mV5vtJ6Xf8CN-11" value="" style="edgeStyle=orthogonalEdgeStyle;rounded=0;orthogonalLoop=1;jettySize=auto;html=1;" edge="1" parent="1" source="3ZZmDOK_mV5vtJ6Xf8CN-9" target="Tf7cWxxf-JpD68VfR2kZ-1">
          <mxGeometry relative="1" as="geometry" />
        </mxCell>
        <mxCell id="3ZZmDOK_mV5vtJ6Xf8CN-9" value="Docker&lt;div&gt;Containares&lt;/div&gt;" style="rounded=0;whiteSpace=wrap;html=1;" vertex="1" parent="1">
          <mxGeometry x="35" y="260" width="120" height="60" as="geometry" />
        </mxCell>
      </root>
    </mxGraphModel>
  </diagram>
</mxfile>
